<svg xmlns="http://www.w3.org/2000/svg"
	xmlns:xlink="http://www.w3.org/1999/xlink" version="1.1" id="Layer_1" x="0px" y="0px" viewBox="0 0 502 502" style="enable-background:new 0 0 502 502;" xml:space="preserve" width="512" height="512">
	<g>
		<path style="fill:#50A5DC;" d="M122.632,388.606c-10.082-3.477-18.913-9.854-25.383-18.332l-16.297-21.354   c-1.807-2.367-2.807-5.251-2.855-8.229l-0.731-45.341c-0.112-6.93,4.887-12.888,11.73-13.983   c7.326-1.172,12.449-7.88,11.652-15.256l-1.392-12.88c-0.418-3.865-2.432-7.38-5.555-9.695l-10.27-7.614   c-9.325-6.914-20.626-10.646-32.235-10.646h-6.779c-2.892,0-5.78-0.232-8.636-0.693l-23.646-3.822   C10.772,230.649,10,240.741,10,251c0,81.638,47.847,152.971,119.109,191.536l5.029-35.085   C135.318,399.223,130.49,391.316,122.632,388.606z"/>
		<path style="fill:#50A5DC;" d="M465.577,316.05l-1.403-1.733c-3.948-4.877-10.547-6.726-16.454-4.61l-10.666,3.821   c-6.744,2.416-13.953,3.249-21.07,2.437l-3.132-0.358c-16.603-1.896-30.932-12.509-37.585-27.839   c-3.781-8.713-4.819-18.371-2.975-27.688l6.45-32.595c1.738-8.781,5.959-16.878,12.163-23.33l2.546-2.648   c10.63-11.055,26.005-16.193,41.145-13.751l16.915,2.728c0.375,0.061,0.748,0.135,1.118,0.225l32.596,7.878   c-5.516-20.989-14.262-40.814-25.74-58.999l-20.491-2.941c-0.296-0.042-0.589-0.097-0.88-0.164l-22.428-5.15   c-6.9-1.584-13.426,3.801-13.181,10.876c0.131,3.77-1.719,7.333-4.877,9.396l-14.522,9.484c-3.382,2.209-7.715,2.341-11.225,0.341   l-20.453-11.649c-5.684-3.237-8.56-9.828-7.068-16.196l4.602-19.644c1.529-6.527,7.263-11.204,13.964-11.391l17.329-0.482   c8.037-0.224,14.418-6.837,14.353-14.878l-0.118-14.557C354.402,45.221,304.759,29,251,29c-14.869,0-29.42,1.249-43.545,3.623   c8.568,5.927,15.471,14.35,19.523,24.585l0.568,1.435c1.742,4.402,2.9,9.014,3.443,13.717l0.504,4.364   c1.1,9.529-0.353,19.179-4.209,27.962l-5.439,12.388c-4.349,9.906-11.566,18.281-20.721,24.045l-6.776,4.266   c-3.815,2.402-6.037,6.676-5.812,11.179l0.915,18.302c0.38,7.597-6.069,13.762-13.641,13.041c-4.148-0.395-7.825-2.835-9.8-6.504   l-8.322-15.454c-1.608-2.986-4.363-5.189-7.63-6.101l-29.409-8.207c-5.476-1.528-11.315-1.076-16.49,1.276l-7.003,3.183   c-10.463,4.756-16.127,16.225-13.542,27.424h0c1.018,4.412,3.255,8.448,6.457,11.65l19.107,19.107   c1.328,1.328,2.587,2.725,3.77,4.184l13.1,16.157c3.87,4.773,9.694,7.538,15.839,7.519l35.689-0.109   c7.246-0.022,13.956,3.818,17.607,10.077c2.879,4.935,7.702,8.429,13.289,9.626l13.372,2.866c5.785,1.24,10.742,4.94,13.575,10.134   l6.459,11.841c1.611,2.954,4.079,5.351,7.078,6.875l30.352,15.425c6.262,3.182,9.855,9.95,8.984,16.92   c-0.503,4.024-2.456,7.726-5.493,10.413l-11.53,10.2c-2.039,1.804-3.605,4.08-4.561,6.629l-2.512,6.7   c-1.741,4.643-5.329,8.356-9.909,10.255l-12.28,5.092c-6.689,2.773-11.05,9.302-11.05,16.544c0,2.896-0.703,5.75-2.047,8.315   l-35.003,66.774C212.211,470.813,231.327,473,251,473c96.678,0,180.045-52.447,218.44-128.132l-0.581-19.959   C468.765,321.677,467.612,318.564,465.577,316.05z"/>
		<g>
			<path style="fill:#7AC943;" d="M230.956,391.627c0-7.241,4.361-13.77,11.05-16.544l12.28-5.092    c4.58-1.899,8.168-5.612,9.909-10.255l2.512-6.7c0.956-2.549,2.522-4.825,4.561-6.629l11.53-10.2    c3.037-2.687,4.99-6.389,5.493-10.413c0.871-6.97-2.722-13.738-8.984-16.92l-30.352-15.425c-3-1.524-5.467-3.921-7.078-6.875    l-6.459-11.841c-2.833-5.194-7.79-8.895-13.575-10.134l-13.372-2.866c-5.586-1.197-10.41-4.691-13.289-9.626    c-3.651-6.259-10.36-10.099-17.607-10.077l-35.689,0.109c-6.145,0.019-11.969-2.746-15.839-7.519l-13.1-16.157    c-1.183-1.459-2.441-2.856-3.77-4.184L90.07,195.174c-3.201-3.201-5.439-7.238-6.457-11.65h0    c-2.584-11.199,3.079-22.668,13.542-27.424l7.003-3.183c5.175-2.352,11.014-2.804,16.49-1.276l29.409,8.207    c3.267,0.912,6.022,3.115,7.63,6.101l8.322,15.454c1.975,3.669,5.652,6.109,9.8,6.504c7.572,0.721,14.021-5.444,13.641-13.041    l-0.915-18.302c-0.225-4.503,1.997-8.777,5.812-11.179l6.776-4.266c9.155-5.764,16.372-14.139,20.721-24.045l5.439-12.388    c3.856-8.783,5.309-18.433,4.209-27.962l-0.504-4.364c-0.543-4.703-1.7-9.315-3.443-13.717l-0.568-1.435    c-4.051-10.235-10.955-18.658-19.523-24.585C105.722,49.726,26.298,125.663,12.235,220.76l23.646,3.822    c2.855,0.461,5.743,0.693,8.636,0.693h6.779c11.609,0,22.91,3.732,32.235,10.646l10.27,7.614c3.123,2.315,5.137,5.83,5.555,9.695    l1.392,12.88c0.797,7.376-4.325,14.084-11.652,15.256c-6.844,1.095-11.842,7.054-11.73,13.983l0.731,45.341    c0.048,2.977,1.049,5.861,2.855,8.229l16.297,21.354c6.47,8.478,15.301,14.856,25.383,18.332    c7.858,2.71,12.686,10.617,11.507,18.845l-5.029,35.085c19.943,10.793,41.719,19.015,64.797,24.18l35.003-66.774    C230.253,397.376,230.956,394.523,230.956,391.627z"/>
		</g>
		<g>
			<path style="fill:#7AC943;" d="M380.255,102.065l-17.329,0.482c-6.701,0.186-12.435,4.864-13.964,11.391l-4.602,19.644    c-1.492,6.368,1.384,12.959,7.068,16.196l20.453,11.649c3.51,1.999,7.843,1.867,11.225-0.341l14.522-9.484    c3.158-2.063,5.008-5.626,4.877-9.396c-0.246-7.075,6.281-12.461,13.181-10.876l22.428,5.15c0.291,0.067,0.585,0.122,0.88,0.164    l20.491,2.941c-16.53-26.19-38.705-48.98-64.995-66.956l0.118,14.557C394.673,95.228,388.292,101.842,380.255,102.065z"/>
		</g>
		<g>
			<path style="fill:#7AC943;" d="M485.225,198.585l-32.596-7.878c-0.37-0.089-0.742-0.164-1.118-0.225l-16.915-2.728    c-15.141-2.442-30.516,2.697-41.145,13.751l-2.546,2.648c-6.204,6.452-10.426,14.549-12.163,23.33l-6.45,32.595    c-1.844,9.317-0.806,18.975,2.975,27.688c6.653,15.33,20.982,25.943,37.585,27.839l3.132,0.358    c7.117,0.813,14.326-0.021,21.07-2.437l10.666-3.821c5.907-2.116,12.506-0.267,16.454,4.61l1.403,1.733    c2.035,2.514,3.188,5.626,3.282,8.859l0.581,19.959C483.905,316.355,492,284.551,492,251    C492,232.942,489.642,215.393,485.225,198.585z"/>
		</g>
	</g>















</svg>